<svg xmlns="http://www.w3.org/2000/svg" xmlns:xlink="http://www.w3.org/1999/xlink" width="88" height="31" viewBox="0 0 88 31">
  <defs>
    <clipPath id="clip-path">
      <path id="Tracé_4" data-name="Tracé 4" d="M0,0H88V31H0Z" fill="#fff"/>
    </clipPath>
  </defs>
  <g id="logo-1_1_" data-name="logo-1 (1)" clip-path="url(#clip-path)">
    <path id="Tracé_1" data-name="Tracé 1" d="M5.584,22.207q1.076,3.918,5.834,3.918a5.435,5.435,0,0,0,4.632-2.084l4.3,2.5A10.235,10.235,0,0,1,11.336,31,11.091,11.091,0,0,1,3.1,27.876,10.712,10.712,0,0,1,0,20a10.767,10.767,0,0,1,3.062-7.855A10.492,10.492,0,0,1,10.922,9a9.833,9.833,0,0,1,7.508,3.166A11.037,11.037,0,0,1,21.388,20a12.47,12.47,0,0,1-.208,2.208H5.584v0ZM5.5,18.041H16.05a5.038,5.038,0,0,0-1.883-3.167,5.371,5.371,0,0,0-3.247-1.04,5.577,5.577,0,0,0-3.558,1.105,5.275,5.275,0,0,0-1.86,3.1v0ZM62.311,9.584h5.336V30.416H62.311V27.96A8.1,8.1,0,0,1,55.568,31a9.142,9.142,0,0,1-7.1-3.186A11.07,11.07,0,0,1,45.515,20a11.063,11.063,0,0,1,2.958-7.812A9.336,9.336,0,0,1,55.568,9a8.1,8.1,0,0,1,6.743,3.042V9.584ZM52.466,24.231a5.486,5.486,0,0,0,4.1,1.646,5.559,5.559,0,0,0,4.117-1.646A5.745,5.745,0,0,0,62.313,20a5.744,5.744,0,0,0-1.635-4.229,5.568,5.568,0,0,0-4.117-1.647,5.485,5.485,0,0,0-4.1,1.647A5.791,5.791,0,0,0,50.854,20,5.788,5.788,0,0,0,52.466,24.231Zm20.021,6.185V9.584h5.337V30.416Zm10.177,0V0H88V30.416ZM75.136,7.084a3.131,3.131,0,0,1-2.3-.979,3.169,3.169,0,0,1-.97-2.312,3.241,3.241,0,0,1,.97-2.334,3.1,3.1,0,0,1,2.3-1,3.187,3.187,0,0,1,2.336,1,3.242,3.242,0,0,1,.971,2.334,3.178,3.178,0,0,1-.971,2.312A3.173,3.173,0,0,1,75.136,7.084Z" fill="#fff"/>
    <path id="Tracé_2" data-name="Tracé 2" d="M28.587,9.57H21.72L30.107,20,21.731,30.417H28.6L36.974,20Z" fill="#00ffda"/>
    <path id="Tracé_3" data-name="Tracé 3" d="M33.54,24.27l4.94,6.146h6.867L36.974,20,33.54,24.272Zm4.951-14.7-4.95,6.16L36.974,20,45.358,9.57Z" fill="#fff"/>
  </g>
</svg>
